<?xml version="1.0"?>
<svg xmlns="http://www.w3.org/2000/svg" width="32" height="32" viewBox="0 0 32 32" fill="none">
  <circle cx="16" cy="16" r="16" fill="none"/>
  <path d="M16 6C10.477 6 6 10.477 6 16c0 1.624.43 3.162 1.18 4.49L6 26l5.646-1.18A9.94 9.94 0 0 0 16 26c5.523 0 10-4.477 10-10S21.523 6 16 6Z" stroke="#fff" stroke-width="2" fill="none"/>
  <path d="M21.07 19.116c-.492 1.362-2.852 2.605-3.986 2.772-1.018.149-2.306.213-3.72-.231-.857-.27-1.957-.628-3.366-1.229-5.923-2.526-9.791-8.415-10.087-8.804C9.616 11.235 7.5 8.463 7.5 5.594s1.525-4.28 2.067-4.864c.542-.584 1.181-.73 1.575-.73s.787.005 1.132.021c.363.018.85-.137 1.329 1.001.492 1.168 1.673 4.037 1.819 4.33.148.292.246.633.05 1.022-.196.389-.294.632-.59.973s-.62.76-.886 1.022c-.296.291-.603.606-.259 1.19.344.584 1.529 2.493 3.285 4.039 2.255 1.986 4.158 2.602 4.748 2.894.59.292.935.243 1.279-.146.344-.39 1.476-1.703 1.869-2.286s.787-.487 1.329-.292c.542.194 3.445 1.604 4.035 1.896.59.292.984.438 1.132.681.148.243.148 1.411-.344 2.772Z" stroke="#fff" stroke-width="1.5" fill="none"/>
</svg>