<?xml version="1.0" encoding="iso-8859-1"?>
<!-- Generator: Adobe Illustrator 17.1.0, SVG Export Plug-In . SVG Version: 6.00 Build 0)  -->
<!DOCTYPE svg PUBLIC "-//W3C//DTD SVG 1.1//EN" "http://www.w3.org/Graphics/SVG/1.1/DTD/svg11.dtd">
<svg version="1.1" id="Capa_1" xmlns="http://www.w3.org/2000/svg" xmlns:xlink="http://www.w3.org/1999/xlink" x="0px" y="0px"
	 viewBox="0 0 208.126 208.126" style="enable-background:new 0 0 208.126 208.126;" xml:space="preserve">
<path d="M170.621,202.507h-11.067c-1.381,0-2.5-1.119-2.5-2.5v-20.329c0-12.395-10.083-22.479-22.478-22.479
	s-22.479,10.084-22.479,22.479v20.329c0,1.381-1.119,2.5-2.5,2.5H98.53c-1.381,0-2.5-1.119-2.5-2.5v-18.735
	c0-13.273-10.798-24.072-24.072-24.072h-1.07c-12.683,0-23.002,10.319-23.002,23.002v19.805c0,1.381-1.119,2.5-2.5,2.5H34.319
	c-1.381,0-2.5-1.119-2.5-2.5V180.56c0-12.881-10.479-23.36-23.361-23.36H2.5c-1.381,0-2.5-1.119-2.5-2.5v-11.773
	c0-1.381,1.119-2.5,2.5-2.5h23.618v-13.891c-13.555,5.898-22.696,7.029-23.334,7.102c-1.369,0.152-2.611-0.828-2.768-2.2
	c-0.157-1.371,0.827-2.609,2.197-2.768c0.287-0.034,25.689-3.26,54.814-27.1c29.268-23.956,39.025-50.819,39.12-51.087
	c0.199-0.563,0.58-1.01,1.053-1.298V8.12c0-1.381,1.119-2.5,2.5-2.5h9.811c1.381,0,2.5,1.119,2.5,2.5v42.743
	c0.921,2.372,6.328,15.454,18.971,30.788c0.117,0.116,0.222,0.243,0.314,0.379c5.265,6.341,11.763,13.052,19.691,19.541
	c29.145,23.855,54.562,27.07,54.815,27.1c1.37,0.161,2.353,1.4,2.194,2.771c-0.16,1.37-1.4,2.348-2.766,2.196
	c-0.569-0.065-7.904-0.972-19.104-5.354v12.143h19.5c1.381,0,2.5,1.119,2.5,2.5V154.7c0,1.381-1.119,2.5-2.5,2.5h-10.219
	c-12.289,0-22.286,9.998-22.286,22.286v20.521C173.121,201.388,172.002,202.507,170.621,202.507z M162.054,197.507h6.067v-18.021
	c0-15.045,12.241-27.286,27.286-27.286h7.719v-6.773H5v6.773h3.458c15.638,0,28.361,12.722,28.361,28.36v16.947h6.067v-17.305
	c0-15.44,12.562-28.002,28.002-28.002h1.07c16.03,0,29.072,13.042,29.072,29.072v16.235h6.067v-17.829
	c0-15.152,12.327-27.479,27.478-27.479c15.152,0,27.479,12.327,27.479,27.479V197.507z M157.262,140.427h23.865v-14.229
	c-7.006-3.104-15.143-7.47-23.865-13.591V140.427z M131.722,140.427h20.54v-31.478c-1.468-1.119-2.949-2.288-4.441-3.509
	c-6.185-5.062-11.519-10.225-16.099-15.25V140.427z M112.012,140.427h14.71V84.412c-6.86-8.356-11.609-16.026-14.71-21.792V140.427z
	 M102.201,140.427h4.811V51.377c-0.001-0.039-0.001-0.078,0-0.117V10.62h-4.811V140.427z M80.632,140.427h16.569V60.332
	c-3.116,6.126-8.419,15.114-16.658,24.986c0.058,0.21,0.088,0.433,0.088,0.662V140.427z M55.754,140.427h19.877V90.912
	c-4.43,4.796-9.549,9.709-15.437,14.529c-1.492,1.221-2.972,2.389-4.44,3.508V140.427z M31.118,140.427h19.636v-27.82
	c-7.018,4.925-13.66,8.715-19.636,11.625V140.427z"/>
<g>
</g>
<g>
</g>
<g>
</g>
<g>
</g>
<g>
</g>
<g>
</g>
<g>
</g>
<g>
</g>
<g>
</g>
<g>
</g>
<g>
</g>
<g>
</g>
<g>
</g>
<g>
</g>
<g>
</g>
</svg>
