<?xml version="1.0" encoding="iso-8859-1"?>
<!-- Generator: Adobe Illustrator 16.0.0, SVG Export Plug-In . SVG Version: 6.00 Build 0)  -->
<!DOCTYPE svg PUBLIC "-//W3C//DTD SVG 1.1//EN" "http://www.w3.org/Graphics/SVG/1.1/DTD/svg11.dtd">
<svg version="1.1" id="Capa_1" xmlns="http://www.w3.org/2000/svg" xmlns:xlink="http://www.w3.org/1999/xlink" x="0px" y="0px"
	 width="95.75px" height="95.75px" viewBox="0 0 95.75 95.75" style="enable-background:new 0 0 95.75 95.75;" xml:space="preserve"
	>
<g>
	<path d="M93.251,0.069L2.548,0.023H2.547c-1.38,0-2.499,1.118-2.5,2.498L0,93.226c0,0.663,0.263,1.3,0.731,1.77
		c0.47,0.469,1.105,0.731,1.769,0.731l66.583-0.004c0.665,0,1.302-0.265,1.771-0.736l24.168-24.303
		c0.467-0.47,0.729-1.104,0.729-1.765V2.569C95.75,1.189,94.632,0.07,93.251,0.069z M11.873,12.346c0-0.829,0.672-1.5,1.5-1.5
		h62.012c0.828,0,1.5,0.671,1.5,1.5v4.389c0,0.829-0.672,1.5-1.5,1.5H13.373c-0.828,0-1.5-0.671-1.5-1.5V12.346z M11.873,31.567
		c0-0.829,0.672-1.5,1.5-1.5h62.012c0.828,0,1.5,0.671,1.5,1.5v4.389c0,0.829-0.672,1.5-1.5,1.5H13.373c-0.828,0-1.5-0.671-1.5-1.5
		V31.567z M42.441,55.177c0,0.83-0.672,1.5-1.5,1.5H13.373c-0.828,0-1.5-0.67-1.5-1.5v-4.389c0-0.828,0.672-1.5,1.5-1.5h27.568
		c0.828,0,1.5,0.672,1.5,1.5V55.177z M87.812,65.862l-21.859,21.86c-0.287,0.287-0.671,0.439-1.061,0.439
		c-0.193,0-0.39-0.037-0.574-0.115c-0.562-0.231-0.926-0.778-0.926-1.385V64.802c0-0.828,0.672-1.5,1.5-1.5h21.858
		c0.606,0,1.153,0.365,1.386,0.926C88.37,64.789,88.24,65.434,87.812,65.862z"/>
</g>
<g>
</g>
<g>
</g>
<g>
</g>
<g>
</g>
<g>
</g>
<g>
</g>
<g>
</g>
<g>
</g>
<g>
</g>
<g>
</g>
<g>
</g>
<g>
</g>
<g>
</g>
<g>
</g>
<g>
</g>
</svg>
