<?xml version="1.0" encoding="iso-8859-1"?>
<!-- Generator: Adobe Illustrator 19.0.0, SVG Export Plug-In . SVG Version: 6.00 Build 0)  -->
<svg version="1.1" id="Capa_1" xmlns="http://www.w3.org/2000/svg" xmlns:xlink="http://www.w3.org/1999/xlink" x="0px" y="0px"
	 viewBox="0 0 512.001 512.001" style="enable-background:new 0 0 512.001 512.001;" xml:space="preserve">
<g>
	<g>
		<g>
			<path d="M96,220h240.002c5.523,0,10-4.477,10-10V90.001c0-5.523-4.477-10-10-10H96c-5.521,0-10,4.477-10,10V210
				C86,215.523,90.479,220,96,220z M146.726,199.999c1.701-11.841,6.365-22.737,13.232-31.899l31.901,31.899H146.726z
				 M220.145,199.998L220.145,199.998l-46.043-46.041c11.689-8.762,26.199-13.959,41.9-13.959c35.201,0,64.404,26.124,69.272,60
				H220.145z M105.999,100.001h220.002v99.998h-20.559c-4.99-44.938-43.195-80-89.44-80c-21.219,0-40.742,7.385-56.145,19.714
				l-10.355-10.354c-3.906-3.905-10.236-3.905-14.143,0.001c-3.904,3.905-3.904,10.237,0,14.142l10.355,10.355
				c-10.365,12.949-17.23,28.811-19.156,46.143h-20.559V100.001z"/>
			<path d="M436.002,80.001h-19.961c-0.014,0-0.025-0.002-0.039-0.002c-0.012,0-0.025,0.002-0.039,0.002H386v-50
				C386.001,13.458,372.543,0,356.002,0H76C59.457,0,46,13.458,46,30.001v423.721C34.361,457.85,26,468.965,26,482v20.001
				c0,5.523,4.479,10,10,10h360c5.521,0,10-4.477,10-10V482c0-13.036-8.361-24.15-20-28.279V270h15c8.271,0,15,6.728,15,14.998V335
				v25c0,19.298,15.701,34.998,35,34.998s35-15.7,35-34.998V210v-80C486.001,102.43,463.572,80.001,436.002,80.001z M76,20h280.002
				c5.514,0,9.998,4.486,9.998,10.001v422h-300c0,0,0-422,0-422C66,24.486,70.486,20,76,20z M46.001,492.001V482
				c0-5.514,4.486-9.999,10.002-9.999H376c5.514,0,10,4.485,10,9.999v10.001H46.001z M466.001,360c0,8.27-6.729,14.998-15,14.998
				s-15-6.728-15-14.998v-25v-50.002c0-19.298-15.701-34.998-35-34.998h-15V100.001h20.002V170c0,27.568,22.43,49.997,49.998,49.998
				l10,0.001V360z M466.001,199.998l-9.998-0.001c-16.543,0-30-13.457-30-29.998V100h10c16.541,0.001,29.998,13.458,29.998,29.999
				V199.998z"/>
			<path d="M244.288,293.927l-21.215-21.213c-3.906-3.905-10.236-3.905-14.143,0l-21.213,21.213
				c-7.555,7.555-11.717,17.6-11.717,28.285s4.16,20.73,11.717,28.286c7.555,7.554,17.6,11.715,28.283,11.715
				c10.686,0,20.73-4.16,28.287-11.716C259.882,334.899,259.882,309.522,244.288,293.927z M230.145,336.354
				c-3.777,3.777-8.801,5.858-14.145,5.858c-5.342,0-10.365-2.08-14.141-5.857c-3.779-3.778-5.859-8.801-5.859-14.143
				c0-5.342,2.08-10.365,5.859-14.142l14.143-14.143l14.143,14.143C237.941,315.867,237.941,328.557,230.145,336.354z"/>
			<path d="M175.765,60.002h0.234c5.523,0,10-4.477,10-10s-4.477-10-10-10h-0.234c-5.523,0-10,4.477-10,10
				S170.242,60.002,175.765,60.002z"/>
			<path d="M96,60.002h51.035c5.523,0,10-4.477,10-10s-4.477-10-10-10H96c-5.521,0-10,4.477-10,10S90.478,60.002,96,60.002z"/>
			<path d="M256.234,412.003H256c-5.523,0-10,4.477-10,10s4.477,10,10,10h0.234c5.523,0,10-4.477,10-10
				S261.759,412.003,256.234,412.003z"/>
			<path d="M336.002,412.003h-51.037c-5.523,0-10,4.477-10,10s4.477,10,10,10h51.037c5.523,0,10-4.477,10-10
				S341.525,412.003,336.002,412.003z"/>
		</g>
	</g>
</g>
<g>
</g>
<g>
</g>
<g>
</g>
<g>
</g>
<g>
</g>
<g>
</g>
<g>
</g>
<g>
</g>
<g>
</g>
<g>
</g>
<g>
</g>
<g>
</g>
<g>
</g>
<g>
</g>
<g>
</g>
</svg>
