<?xml version="1.0" encoding="iso-8859-1"?>
<!-- Generator: Adobe Illustrator 19.0.0, SVG Export Plug-In . SVG Version: 6.00 Build 0)  -->
<svg version="1.1" id="Capa_1" xmlns="http://www.w3.org/2000/svg" xmlns:xlink="http://www.w3.org/1999/xlink" x="0px" y="0px"
	 viewBox="0 0 512 512" style="enable-background:new 0 0 512 512;" xml:space="preserve">
<g>
	<g>
		<path d="M497,391c8.284,0,15-6.716,15-15v-30c0-0.09-0.012-0.177-0.013-0.267c-0.096-5.302-3.007-10.054-7.307-12.618
			l-144.7-86.245L344.186,120H421v15c0,8.284,6.716,15,15,15s15-6.716,15-15v-29.894c0-0.014,0-0.028,0-0.042V105
			c0-0.042-0.006-0.081-0.006-0.123c-0.037-4.463-2.048-8.743-5.686-11.627c-0.104-0.082-0.201-0.171-0.308-0.25L325,3
			c-0.017-0.013-0.036-0.024-0.054-0.037C322.429,1.095,319.221,0,316,0H196c-3.286,0-6.48,1.133-8.946,2.963
			C187.036,2.976,187.017,2.987,187,3L67,93c-0.107,0.08-0.204,0.168-0.308,0.25c-3.634,2.882-5.649,7.201-5.686,11.627
			c0,0.041-0.006,0.081-0.006,0.123v0.064c0,0.014,0,0.028,0,0.042V135c0,8.284,6.716,15,15,15s15-6.716,15-15v-15h76.814
			l-15.793,126.87L7.32,333.115c-4.301,2.563-7.211,7.261-7.307,12.618C0.012,345.823,0,345.91,0,346v30c0,8.284,6.716,15,15,15
			s15-6.716,15-15v-15h31v15c0,8.284,6.716,15,15,15s15-6.716,15-15v-15h46.814l-15.062,121H15c-8.284,0-15,6.716-15,15
			s6.716,15,15,15c9.593,0,478.605,0,482,0c8.284,0,15-6.716,15-15s-6.716-15-15-15H389.249L374.23,361.352
			c0.118-0.114,0.223-0.235,0.337-0.352H421v15c0,8.284,6.716,15,15,15s15-6.716,15-15v-15h31v15C482,384.284,488.716,391,497,391z
			 M141.548,331H69.464l77.861-46.407L141.548,331z M391,90h-50.548l-5.205-41.815L391,90z M325.983,216.626l-47.881-44.963
			l37.873-35.433L325.983,216.626z M308.114,241H203.989l52.159-48.799L308.114,241z M223.086,120h66.325l-33.224,31.083
			L223.086,120z M209.249,30h93.502l7.469,60H201.78L209.249,30z M196.079,135.794l38.154,35.828l-48.231,45.124L196.079,135.794z
			 M332.751,271l7.469,60H171.78l7.468-60H332.751z M319.838,361l-65.176,41.894L188.109,361H319.838z M121,90l55.753-41.815
			L171.548,90H121z M165.411,382.161l61.388,38.643l-71.956,46.252L165.411,382.161z M187.077,482l67.754-43.551L324.014,482
			H187.077z M282.693,420.54l63.586-40.872l10.927,87.776L282.693,420.54z M370.452,331l-5.777-46.407L442.536,331H370.452z"/>
	</g>
</g>
<g>
</g>
<g>
</g>
<g>
</g>
<g>
</g>
<g>
</g>
<g>
</g>
<g>
</g>
<g>
</g>
<g>
</g>
<g>
</g>
<g>
</g>
<g>
</g>
<g>
</g>
<g>
</g>
<g>
</g>
</svg>
