<?xml version="1.0" encoding="iso-8859-1"?>
<!-- Generator: Adobe Illustrator 19.0.0, SVG Export Plug-In . SVG Version: 6.00 Build 0)  -->
<svg version="1.1" id="Layer_1" xmlns="http://www.w3.org/2000/svg" xmlns:xlink="http://www.w3.org/1999/xlink" x="0px" y="0px"
	 viewBox="0 0 296.562 296.562" style="enable-background:new 0 0 296.562 296.562;" xml:space="preserve">
<g>
	<g>
		<g>
			<path d="M295.319,143.619c-0.762-1.4-9.743-17.362-29.629-34.095c-16.657-49.51-62.614-82.671-115.029-82.671
				c-49.862,0-95.048,31.033-113.114,77.376c-24.567,18.51-35.462,37.848-36.305,39.39L0,145.899l1.243,2.281
				c0.814,1.495,11.038,19.667,33.971,37.619c16.295,50.252,62.41,83.91,115.448,83.91c54.748,0,102.557-36.576,117.019-89.152
				c18.486-16.095,26.9-31.029,27.638-32.381l1.243-2.276L295.319,143.619z M150.662,36.375c43.138,0,81.543,24.376,100.2,62.086
				C227.557,83.085,194.119,69.71,148.281,69.71c-41.4,0-72.652,10.919-95.5,24.362C72.286,59.004,109.781,36.375,150.662,36.375z
				 M214.948,145.899c0,36.762-29.905,66.667-66.667,66.667c-36.762,0-66.667-29.905-66.667-66.667
				c0-36.762,29.905-66.667,66.667-66.667S214.948,109.137,214.948,145.899z M11.005,145.899c6.31-9.748,34.267-47.89,92.71-61.662
				c-19.12,13.857-31.625,36.3-31.625,61.662c0,25.362,12.505,47.805,31.619,61.662C45.271,193.789,17.31,155.648,11.005,145.899z
				 M150.662,260.185c-44.229,0-83.21-25.414-101.362-64.552c23.11,14.386,55.443,26.457,98.981,26.457
				c47.924,0,82.262-14.619,105.667-30.862C236.833,232.476,196.39,260.185,150.662,260.185z M192.852,207.562
				c19.114-13.857,31.619-36.3,31.619-61.662s-12.505-47.805-31.619-61.662c58.438,13.771,86.4,51.914,92.705,61.662
				C279.252,155.648,251.29,193.789,192.852,207.562z"/>
			<path d="M95.9,179.232h28.571v-28.571H95.9V179.232z M105.424,160.185h9.524v9.524h-9.524V160.185z"/>
			<path d="M162.567,126.851h-28.571v52.381h28.571V126.851z M153.043,169.71h-9.524v-33.333h9.524V169.71z"/>
			<path d="M200.661,107.804H172.09v71.429h28.571V107.804z M191.138,169.71h-9.524v-52.381h9.524V169.71z"/>
			<rect x="143.519" y="50.661" width="9.524" height="9.524"/>
			<rect x="162.567" y="50.661" width="9.524" height="9.524"/>
			<rect x="124.471" y="50.661" width="9.524" height="9.524"/>
			<rect x="143.519" y="236.375" width="9.524" height="9.524"/>
			<rect x="162.567" y="236.375" width="9.524" height="9.524"/>
			<rect x="124.471" y="236.375" width="9.524" height="9.524"/>
		</g>
	</g>
</g>
<g>
</g>
<g>
</g>
<g>
</g>
<g>
</g>
<g>
</g>
<g>
</g>
<g>
</g>
<g>
</g>
<g>
</g>
<g>
</g>
<g>
</g>
<g>
</g>
<g>
</g>
<g>
</g>
<g>
</g>
</svg>
