<?xml version="1.0" encoding="iso-8859-1"?>
<!-- Generator: Adobe Illustrator 19.0.0, SVG Export Plug-In . SVG Version: 6.00 Build 0)  -->
<svg version="1.1" id="Capa_1" xmlns="http://www.w3.org/2000/svg" xmlns:xlink="http://www.w3.org/1999/xlink" x="0px" y="0px"
	 viewBox="0 0 343.6 343.6" style="enable-background:new 0 0 343.6 343.6;" xml:space="preserve">
<g>
	<g>
		<g>
			<path d="M263.6,65.2c-4.8,0-8.4,4-8.4,8.4l0.8,199.6c0,0.4,0,0.4,0,0.8c0,14.8-6,28.4-15.6,38c-9.6,9.6-23.2,15.6-38,15.6
				s-28.4-6-38-15.6c-9.6-9.6-15.6-23.2-15.6-38c0-0.4,0-0.4,0-0.8V208c15.6-2,29.6-9.2,40-19.6c12.4-12.4,20-29.6,20-48.4V90.4
				c0-6.8-2.8-13.2-7.2-17.6c-2.8-2.8-6-4.8-9.6-6v-48c0-5.2-2.4-10-5.6-13.2c-3.6-3.6-8-5.6-13.2-5.6h-6.8c-5.2,0-10,2.4-13.2,5.6
				c-3.6,3.6-5.6,8-5.6,13.2v46.8h-13.2V18.8c0-5.2-2.4-10-5.6-13.2c-3.6-3.6-8-5.6-13.2-5.6h-6.8c-5.2,0-10,2.4-13.2,5.6
				C92,9.2,90,13.6,90,18.8v47.6c-4.4,1.2-8,3.2-11.2,6.4c-4.4,4.4-7.2,10.8-7.2,17.6v49.2c0,18.8,7.6,36,20,48.4
				c10.4,10.4,24.4,17.6,40,19.6v65.2c0,0.4,0,0.4,0,0.8c0,19.2,7.6,36.8,20.4,49.6c12.8,12.4,30.4,20.4,49.6,20.4
				s36.8-7.6,49.6-20.4c12.4-12.8,20.4-30.4,20.4-49.6c0-0.4,0-0.4,0-0.8L272,73.6C272,68.8,268.4,65.2,263.6,65.2z M164,18.8
				c0-0.8,0-1.2,0.4-1.6c0.4,0,1.2-0.4,1.6-0.4h6.8c0.4,0,0.8,0.4,1.2,0.4c0,0.4,0.4,1.2,0.4,1.6v46.8H164V18.8z M106.4,18.8
				c0-0.8,0-1.2,0.4-1.6c0,0,0.8-0.4,1.2-0.4h6.8c0.8,0,1.2,0.4,1.6,0.8c0,0,0.4,0.8,0.4,1.2v46.8h-10.4V18.8z M103.2,176.4
				C94,167.2,88,154.4,88,140V90.4c0-2.4,0.8-4.4,2.4-6c1.6-1.6,3.6-2.4,6-2.4h86.4c2.4,0,4.4,0.8,6,2.4c1.6,1.6,2.4,3.6,2.4,6V140
				c0,14-6,27.2-15.2,36.4c-9.2,9.2-22,15.2-36.4,15.2C125.6,191.6,112.4,186,103.2,176.4z"/>
			<path d="M155.6,104h-22c-1.2,0-2.4,0.8-2.8,2l-10,31.2c0,0.4,0,0.8,0,1.2c0,1.6,1.2,2.8,2.8,2.8h6l-6.4,24.8
				c-0.4,1.2,0,2.4,0.8,3.2c1.2,0.8,2.8,0.8,4-0.4l28.4-33.2c0.4-0.8,0.8-1.2,0.8-2c0-1.6-1.2-2.8-2.8-2.8h-8l11.6-22.4
				c0.4-0.4,0.4-1.2,0.4-1.6C158.4,105.2,157.2,104,155.6,104z"/>
		</g>
	</g>
</g>
<g>
</g>
<g>
</g>
<g>
</g>
<g>
</g>
<g>
</g>
<g>
</g>
<g>
</g>
<g>
</g>
<g>
</g>
<g>
</g>
<g>
</g>
<g>
</g>
<g>
</g>
<g>
</g>
<g>
</g>
</svg>
