<?xml version="1.0" encoding="iso-8859-1"?>
<!-- Generator: Adobe Illustrator 18.1.1, SVG Export Plug-In . SVG Version: 6.00 Build 0)  -->
<svg version="1.1" id="Capa_1" xmlns="http://www.w3.org/2000/svg" xmlns:xlink="http://www.w3.org/1999/xlink" x="0px" y="0px"
	 viewBox="0 0 425 425" style="enable-background:new 0 0 425 425;" xml:space="preserve">
<g>
	<g>
		<path d="M212.217,425c9.35,0,17-7.65,17-17V61.483l111.067,124.383c3.4,3.683,7.933,5.667,12.75,5.667
			c3.967,0,7.933-1.417,11.333-4.25c7.083-6.233,7.65-17,1.417-24.083L224.967,5.667C221.85,1.983,217.033,0,212.217,0
			c-1.417,0-2.55,0.283-3.683,0.567c-4.25,0.85-7.65,3.4-10.2,6.8L59.217,163.2c-6.233,7.083-5.667,17.85,1.417,24.083
			s17.85,5.667,24.083-1.417l110.5-124.1V408C195.217,417.35,202.867,425,212.217,425z"/>
	</g>
</g>
<g>
</g>
<g>
</g>
<g>
</g>
<g>
</g>
<g>
</g>
<g>
</g>
<g>
</g>
<g>
</g>
<g>
</g>
<g>
</g>
<g>
</g>
<g>
</g>
<g>
</g>
<g>
</g>
<g>
</g>
</svg>
