<?xml version="1.0" encoding="iso-8859-1"?>
<!-- Generator: Adobe Illustrator 19.0.0, SVG Export Plug-In . SVG Version: 6.00 Build 0)  -->
<svg version="1.1" id="Layer_1" xmlns="http://www.w3.org/2000/svg" xmlns:xlink="http://www.w3.org/1999/xlink" x="0px" y="0px"
	 viewBox="0 0 511.999 511.999" style="enable-background:new 0 0 511.999 511.999;" xml:space="preserve">
<g>
	<g>
		<g>
			<path d="M255.999,305.021c-3.176,0-6.186,1.423-8.202,3.878c-7.11,8.658-69.467,85.746-69.467,125.432
				c0,42.067,33.625,76.406,75.405,77.61c0.749,0.038,1.504,0.057,2.262,0.057s1.513-0.019,2.262-0.057
				c41.781-1.204,75.405-35.544,75.405-77.61c0-39.687-62.357-116.774-69.467-125.432
				C262.185,306.443,259.175,305.021,255.999,305.021z M255.999,490.775c-12.576,0-22.809-10.232-22.809-22.809
				c0-7.382,10.747-25.564,22.813-41.884c12.064,16.31,22.806,34.488,22.806,41.884
				C278.808,480.543,268.575,490.775,255.999,490.775z M299.99,469.64c0.021-0.556,0.042-1.112,0.042-1.674
				c0-21.184-29.848-58.609-35.832-65.895c-2.015-2.455-5.025-3.878-8.202-3.878c-3.177,0-6.186,1.423-8.202,3.878
				c-5.984,7.286-35.832,44.711-35.832,65.895c0,0.561,0.021,1.117,0.042,1.674c-7.782-9.676-12.453-21.954-12.453-35.309
				c0-21.676,31.844-69.965,56.445-101.675c24.602,31.7,56.443,79.977,56.443,101.675
				C312.444,447.686,307.771,459.964,299.99,469.64z"/>
			<path d="M163.144,63.672h23.018v28.71c0,2.814,1.119,5.513,3.108,7.504l23.612,23.612c2.073,2.071,4.788,3.108,7.504,3.108
				c2.716,0,5.431-1.037,7.504-3.108c4.144-4.144,4.144-10.863,0-15.008l-20.503-20.503V63.672h97.365v24.313l-20.503,20.503
				c-4.144,4.144-4.144,10.863,0,15.008c2.073,2.071,4.788,3.108,7.504,3.108s5.431-1.037,7.504-3.108l23.612-23.612
				c1.99-1.991,3.108-4.689,3.108-7.504v-28.71h22.878c5.86,0,10.612-4.752,10.612-10.612V10.612c0-5.86-4.752-10.612-10.612-10.612
				H163.144c-5.86,0-10.612,4.752-10.612,10.612V53.06C152.532,58.92,157.284,63.672,163.144,63.672z M173.756,21.224h164.485
				v21.224H173.756V21.224z"/>
			<path d="M300.887,151.216c0-5.86-4.752-10.612-10.612-10.612h-23.665V84.931c0-5.86-4.752-10.612-10.612-10.612
				s-10.612,4.752-10.612,10.612v55.673h-23.666c-5.86,0-10.612,4.752-10.612,10.612s4.752,10.612,10.612,10.612h68.554
				C296.137,161.828,300.887,157.077,300.887,151.216z"/>
			<path d="M350.004,194.741c-1.853-3.778-3.717-7.585-5.594-11.426c-2.571-5.266-8.927-7.453-14.192-4.878
				c-5.267,2.572-7.451,8.926-4.878,14.192c1.879,3.85,3.75,7.669,5.607,11.457c1.843,3.759,5.614,5.942,9.536,5.942
				c1.568,0,3.161-0.349,4.665-1.086C350.41,206.361,352.585,200.003,350.004,194.741z"/>
			<path d="M374.44,244.165l-5.664-11.405c-2.604-5.249-8.971-7.399-14.222-4.79c-5.25,2.604-7.395,8.971-4.79,14.222l5.668,11.415
				c1.855,3.732,5.609,5.893,9.513,5.893c1.585,0,3.197-0.357,4.713-1.11C374.906,255.782,377.047,249.413,374.44,244.165z"/>
			<path d="M288.529,215.267c1.098,4.947,5.484,8.315,10.35,8.315c0.762,0,1.536-0.082,2.31-0.254
				c5.722-1.27,9.33-6.938,8.061-12.66l-2.755-12.428c-1.267-5.723-6.932-9.332-12.656-8.067c-5.722,1.267-9.333,6.933-8.067,12.656
				L288.529,215.267z"/>
			<path d="M300.482,269.14c1.098,4.947,5.484,8.314,10.35,8.314c0.762,0,1.536-0.082,2.31-0.254c5.722-1.27,9.33-6.938,8.061-12.66
				l-2.76-12.432c-1.27-5.722-6.94-9.331-12.659-8.062c-5.723,1.269-9.331,6.937-8.062,12.659L300.482,269.14z"/>
			<path d="M245.387,259.903v12.734c0,5.86,4.752,10.612,10.612,10.612s10.612-4.752,10.612-10.612v-12.734
				c0-5.86-4.751-10.612-10.612-10.612C250.139,249.291,245.387,254.043,245.387,259.903z"/>
			<path d="M266.611,204.72c0-5.86-4.752-10.612-10.612-10.612s-10.612,4.752-10.612,10.612v12.734
				c0,5.86,4.752,10.612,10.612,10.612s10.612-4.752,10.612-10.612V204.72z"/>
			<path d="M206.214,244.047c-5.719-1.273-11.388,2.34-12.659,8.062l-2.76,12.432c-1.269,5.722,2.339,11.389,8.061,12.66
				c0.775,0.172,1.548,0.254,2.31,0.254c4.866,0,9.252-3.368,10.35-8.314l2.76-12.434
				C215.545,250.984,211.937,245.316,206.214,244.047z"/>
			<path d="M223.469,215.267l2.757-12.438c1.266-5.723-2.345-11.388-8.067-12.656c-5.722-1.266-11.388,2.344-12.656,8.067
				l-2.755,12.428c-1.269,5.722,2.339,11.389,8.061,12.66c0.775,0.172,1.548,0.254,2.31,0.254
				C217.985,223.581,222.371,220.213,223.469,215.267z"/>
			<path d="M181.05,204.086c1.857-3.787,3.728-7.607,5.607-11.457c2.572-5.267,0.388-11.62-4.878-14.192
				c-5.271-2.576-11.622-0.387-14.192,4.878c-1.876,3.839-3.74,7.648-5.594,11.426c-2.581,5.262-0.406,11.62,4.855,14.201
				c1.504,0.737,3.097,1.086,4.665,1.086C175.436,210.027,179.207,207.845,181.05,204.086z"/>
			<path d="M157.445,227.97c-5.251-2.606-11.617-0.461-14.222,4.79l-5.664,11.405c-2.607,5.248-0.466,11.617,4.783,14.225
				c1.518,0.753,3.126,1.11,4.713,1.11c3.902,0,7.659-2.161,9.513-5.893l5.668-11.415
				C164.84,236.941,162.694,230.574,157.445,227.97z"/>
		</g>
	</g>
</g>
<g>
</g>
<g>
</g>
<g>
</g>
<g>
</g>
<g>
</g>
<g>
</g>
<g>
</g>
<g>
</g>
<g>
</g>
<g>
</g>
<g>
</g>
<g>
</g>
<g>
</g>
<g>
</g>
<g>
</g>
</svg>
