<?xml version="1.0" encoding="iso-8859-1"?>
<!-- Generator: Adobe Illustrator 19.0.0, SVG Export Plug-In . SVG Version: 6.00 Build 0)  -->
<svg version="1.1" id="Capa_1" xmlns="http://www.w3.org/2000/svg" xmlns:xlink="http://www.w3.org/1999/xlink" x="0px" y="0px"
	 viewBox="0 0 519 519" style="enable-background:new 0 0 519 519;" xml:space="preserve">
<g>
	<path d="M517.845,235.501c-1.374-2.18-3.77-3.501-6.345-3.501H399.265c-21.692,0-42.364,6.631-59.706,18.929l-14.034-46.78
		C320.474,187.313,305.27,176,287.691,176H239v-17h32.5c8.547,0,15.5-6.953,15.5-15.5v-16c0-8.547-6.953-15.5-15.5-15.5H239V95.5
		c0-4.142-3.358-7.5-7.5-7.5s-7.5,3.358-7.5,7.5V112h-32.5c-8.547,0-15.5,6.953-15.5,15.5v16c0,8.547,6.953,15.5,15.5,15.5H224v17
		h-80.5c-12.958,0-23.5,10.542-23.5,23.5V296H7.5c-2.33,0-4.528,1.083-5.947,2.931c-1.42,1.848-1.9,4.25-1.299,6.502L22.752,389.8
		C29.22,414.058,51.273,431,76.377,431H393.25c21.248,0,40.901-12.386,50.068-31.554l74.948-156.71
		C519.378,240.412,519.218,237.681,517.845,235.501z M191,143.5v-16c0-0.276,0.224-0.5,0.5-0.5h80c0.276,0,0.5,0.224,0.5,0.5v16
		c0,0.276-0.224,0.5-0.5,0.5h-80C191.224,144,191,143.776,191,143.5z M325.42,256H287.5c-13.509,0-24.5-10.991-24.5-24.5v-8
		c0-0.276,0.224-0.5,0.5-0.5h52.02L325.42,256z M215.5,223c0.276,0,0.5,0.224,0.5,0.5v32c0,0.276-0.224,0.5-0.5,0.5H183v-33H215.5z
		 M168,256h-33v-33h33V256z M135,271h80.5c8.547,0,15.5-6.953,15.5-15.5v-32c0-8.547-6.953-15.5-15.5-15.5H135v-8.5
		c0-4.687,3.813-8.5,8.5-8.5h144.191c10.742,0,20.055,6.812,23.324,17H263.5c-8.547,0-15.5,6.953-15.5,15.5v8
		c0,21.78,17.72,39.5,39.5,39.5h29.894l-25,25H135V271z M429.786,392.974C423.096,406.962,408.755,416,393.25,416H76.377
		c-18.32,0-34.412-12.363-39.133-30.065L17.262,311H295.5c1.989,0,3.897-0.79,5.303-2.197l35.882-35.882
		C353.401,256.206,375.626,247,399.265,247H499.6L429.786,392.974z"/>
	<path d="M127.5,336c-12.958,0-23.5,10.542-23.5,23.5s10.542,23.5,23.5,23.5s23.5-10.542,23.5-23.5S140.458,336,127.5,336z
		 M127.5,368c-4.687,0-8.5-3.813-8.5-8.5s3.813-8.5,8.5-8.5s8.5,3.813,8.5,8.5S132.187,368,127.5,368z"/>
	<path d="M271.5,336c-12.958,0-23.5,10.542-23.5,23.5s10.542,23.5,23.5,23.5s23.5-10.542,23.5-23.5S284.458,336,271.5,336z
		 M271.5,368c-4.687,0-8.5-3.813-8.5-8.5s3.813-8.5,8.5-8.5s8.5,3.813,8.5,8.5S276.187,368,271.5,368z"/>
	<path d="M199.5,336c-12.958,0-23.5,10.542-23.5,23.5s10.542,23.5,23.5,23.5s23.5-10.542,23.5-23.5S212.458,336,199.5,336z
		 M199.5,368c-4.687,0-8.5-3.813-8.5-8.5s3.813-8.5,8.5-8.5s8.5,3.813,8.5,8.5S204.187,368,199.5,368z"/>
	<path d="M404.448,389.169c1.044,0.499,2.146,0.736,3.23,0.736c2.798,0,5.483-1.573,6.771-4.266l31.817-66.526
		c1.787-3.737,0.207-8.215-3.53-10.002c-3.736-1.786-8.215-0.207-10.002,3.53l-31.817,66.526
		C399.13,382.904,400.711,387.382,404.448,389.169z"/>
	<path d="M449.836,294.267c1.044,0.499,2.146,0.736,3.23,0.736c2.798,0,5.483-1.573,6.771-4.266l7.652-16
		c1.787-3.737,0.207-8.215-3.53-10.002c-3.736-1.787-8.215-0.207-10.002,3.53l-7.652,16
		C444.519,288.001,446.099,292.48,449.836,294.267z"/>
</g>
<g>
</g>
<g>
</g>
<g>
</g>
<g>
</g>
<g>
</g>
<g>
</g>
<g>
</g>
<g>
</g>
<g>
</g>
<g>
</g>
<g>
</g>
<g>
</g>
<g>
</g>
<g>
</g>
<g>
</g>
</svg>
