<?xml version="1.0" encoding="iso-8859-1"?>
<!-- Generator: Adobe Illustrator 19.0.0, SVG Export Plug-In . SVG Version: 6.00 Build 0)  -->
<svg version="1.1" id="Capa_1" xmlns="http://www.w3.org/2000/svg" xmlns:xlink="http://www.w3.org/1999/xlink" x="0px" y="0px"
	 viewBox="0 0 496 496" style="enable-background:new 0 0 496 496;" xml:space="preserve">
<g>
	<g>
		<g>
			<path d="M96,72c-35.288,0-64,28.712-64,64c0,35.288,28.712,64,64,64s64-28.712,64-64C160,100.712,131.288,72,96,72z M96,184
				c-26.472,0-48-21.528-48-48s21.528-48,48-48s48,21.528,48,48S122.472,184,96,184z"/>
			<path d="M384,192c44.112,0,80-35.888,80-80s-35.888-80-80-80s-80,35.888-80,80S339.888,192,384,192z M384,48
				c35.288,0,64,28.712,64,64c0,35.288-28.712,64-64,64c-35.288,0-64-28.712-64-64C320,76.712,348.712,48,384,48z"/>
			<path d="M248,272c-48.52,0-88,39.48-88,88c0,48.52,39.48,88,88,88c19.224,0,37.496-6.088,52.816-17.608l-9.616-12.784
				C278.672,427.024,263.736,432,248,432c-39.704,0-72-32.304-72-72s32.296-72,72-72s72,32.304,72,72
				c0,18.504-7.008,36.088-19.728,49.512l11.608,11.008C327.44,404.112,336,382.616,336,360C336,311.48,296.52,272,248,272z"/>
			<path d="M248,304c-30.872,0-56,25.12-56,56s25.128,56,56,56s56-25.12,56-56S278.872,304,248,304z M248,400
				c-22.056,0-40-17.944-40-40c0-22.056,17.944-40,40-40c22.056,0,40,17.944,40,40C288,382.056,270.056,400,248,400z"/>
			<path d="M456,376h-48v16h-27.96c2.496-10.28,3.96-20.96,3.96-32c0-42.656-19.768-80.736-50.592-105.696l22.648-33.976
				C365.008,222.64,374.336,224,384,224c61.76,0,112-50.24,112-112S445.76,0,384,0S272,50.24,272,112
				c0,31.92,13.488,60.688,34.984,81.104l-23.784,35.68C271.952,225.76,260.192,224,248,224c-16.816,0-32.856,3.208-47.736,8.816
				l-26.856-40.272C185.04,176.664,192,157.152,192,136c0-52.936-43.064-96-96-96C43.064,40,0,83.064,0,136s43.064,96,96,96
				c11.456,0,22.408-2.12,32.6-5.824l24.432,36.648C138.992,276.552,128,293.312,120.912,312H64v24h-8c-30.872,0-56,25.12-56,56v104
				h16V392c0-22.056,17.944-40,40-40h8v16h-8c-13.232,0-24,10.768-24,24v104h16V392c0-4.408,3.584-8,8-8h8v24h56.912
				c19.464,51.336,69.008,88,127.088,88c37.552,0,71.6-15.304,96.232-40H408v16h48v-24h40v-48h-40V376z M115.96,392H80v-64h35.96
				c-2.496,10.28-3.96,20.96-3.96,32C112,371.04,113.464,381.72,115.96,392z M288,112c0-52.936,43.064-96,96-96
				c52.936,0,96,43.064,96,96c0,52.936-43.064,96-96,96C331.064,208,288,164.936,288,112z M319.4,203.328
				c6.512,4.616,13.48,8.624,20.904,11.784l-19.952,29.928c-6.768-4.272-13.896-8.008-21.4-11.056L319.4,203.328z M96,216
				c-44.112,0-80-35.888-80-80s35.888-80,80-80s80,35.888,80,80S140.112,216,96,216z M143.328,219.424
				c6.992-3.984,13.44-8.816,19.2-14.36l22.888,34.328c-7.12,3.712-13.84,8.064-20.152,12.928L143.328,219.424z M248,480
				c-66.168,0-120-53.832-120-120s53.832-120,120-120s120,53.832,120,120S314.168,480,248,480z M408,440h-50.264
				c7.144-9.768,12.992-20.504,17.352-32H408V440z M440,456h-16v-64h16V456z M480,416v16h-24v-16H480z"/>
			<path d="M361.376,158.632c6.408,0,12.44-2.496,16.968-7.032l45.248-45.256c9.36-9.36,9.36-24.584,0.008-33.936
				c-9.056-9.064-24.872-9.08-33.944,0l-45.248,45.256c-9.36,9.352-9.36,24.584-0.008,33.936
				C348.928,156.128,354.96,158.632,361.376,158.632z M400.968,83.712c1.512-1.512,3.52-2.344,5.656-2.344
				c2.144,0,4.144,0.832,5.656,2.344c3.12,3.12,3.12,8.192,0,11.32L395.312,112L384,100.688L400.968,83.712z M355.72,128.968
				L372.688,112L384,123.312l-16.968,16.968c-3.04,3.032-8.296,3.016-11.304,0h-0.008C352.6,137.168,352.6,132.088,355.72,128.968z"
				/>
			<path d="M124.28,130.344l-22.624-22.632c-9.072-9.056-24.88-9.056-33.936,0c-9.36,9.352-9.36,24.584,0,33.944l22.624,22.632
				c4.528,4.528,10.56,7.024,16.968,7.024c6.416,0,12.44-2.496,16.968-7.024C133.64,154.928,133.64,139.696,124.28,130.344z
				 M84.688,136l-5.656-5.656c-3.12-3.12-3.12-8.192,0-11.32c1.504-1.512,3.512-2.336,5.656-2.336c2.136,0,4.152,0.832,5.656,2.336
				L96,124.688L84.688,136z M112.968,152.976c-3.008,3.016-8.288,3.024-11.312,0L96,147.312L107.312,136l5.656,5.656
				C116.088,144.776,116.088,149.848,112.968,152.976z"/>
		</g>
	</g>
</g>
<g>
</g>
<g>
</g>
<g>
</g>
<g>
</g>
<g>
</g>
<g>
</g>
<g>
</g>
<g>
</g>
<g>
</g>
<g>
</g>
<g>
</g>
<g>
</g>
<g>
</g>
<g>
</g>
<g>
</g>
</svg>
