<?xml version="1.0" encoding="iso-8859-1"?>
<!-- Generator: Adobe Illustrator 19.0.0, SVG Export Plug-In . SVG Version: 6.00 Build 0)  -->
<svg version="1.1" id="Capa_1" xmlns="http://www.w3.org/2000/svg" xmlns:xlink="http://www.w3.org/1999/xlink" x="0px" y="0px"
	 viewBox="0 0 463 463" style="enable-background:new 0 0 463 463;" xml:space="preserve">
<g>
	<path d="M231.5,88C152.374,88,88,152.374,88,231.5S152.374,375,231.5,375S375,310.626,375,231.5S310.626,88,231.5,88z M231.5,360
		C160.645,360,103,302.355,103,231.5S160.645,103,231.5,103S360,160.645,360,231.5S302.355,360,231.5,360z"/>
	<path d="M231.5,168c-35.014,0-63.5,28.486-63.5,63.5s28.486,63.5,63.5,63.5s63.5-28.486,63.5-63.5S266.514,168,231.5,168z
		 M231.5,280c-26.743,0-48.5-21.757-48.5-48.5s21.757-48.5,48.5-48.5s48.5,21.757,48.5,48.5S258.243,280,231.5,280z"/>
	<path d="M231.5,120C170.019,120,120,170.019,120,231.5S170.019,343,231.5,343S343,292.981,343,231.5S292.981,120,231.5,120z
		 M231.5,328c-53.21,0-96.5-43.29-96.5-96.5s43.29-96.5,96.5-96.5s96.5,43.29,96.5,96.5S284.71,328,231.5,328z"/>
	<path d="M439.5,192h-12.46c-5.09-25.419-14.943-49.188-29.357-70.822l8.826-8.825c4.438-4.438,6.883-10.34,6.883-16.617
		s-2.445-12.179-6.883-16.617L383.881,56.49c-9.163-9.161-24.07-9.161-33.234,0l-8.83,8.83
		C320.396,51.092,296.139,41.037,271,35.965V23.5C271,10.542,260.458,0,247.5,0h-32C202.542,0,192,10.542,192,23.5v12.465
		c-25.139,5.072-49.396,15.127-70.818,29.355l-8.83-8.83c-9.163-9.161-24.072-9.161-33.234,0L56.491,79.118
		c-4.438,4.438-6.883,10.34-6.883,16.617s2.445,12.179,6.883,16.617l8.826,8.825C50.903,142.813,41.051,166.581,35.96,192H23.5
		C10.542,192,0,202.542,0,215.5v32C0,260.458,10.542,271,23.5,271h12.465c5.073,25.14,15.127,49.396,29.355,70.817l-8.83,8.83
		c-9.162,9.162-9.162,24.071,0,33.234l22.627,22.626c4.439,4.439,10.34,6.884,16.618,6.884c6.277,0,12.178-2.444,16.617-6.883
		l8.83-8.83c21.422,14.229,45.679,24.283,70.818,29.355V439.5c0,12.958,10.542,23.5,23.5,23.5h32c12.958,0,23.5-10.542,23.5-23.5
		v-12.466c25.139-5.072,49.396-15.127,70.818-29.355l8.829,8.829c4.439,4.439,10.34,6.884,16.617,6.884
		c6.277,0,12.179-2.444,16.617-6.883l22.628-22.628c9.162-9.162,9.162-24.071,0-33.234l-8.83-8.829
		c14.228-21.421,24.283-45.678,29.355-70.817H439.5c12.958,0,23.5-10.542,23.5-23.5v-32C463,202.542,452.458,192,439.5,192z
		 M448,247.5c0,4.687-3.813,8.5-8.5,8.5h-18.706c-3.663,0-6.79,2.646-7.396,6.259c-4.635,27.611-15.248,53.216-31.543,76.1
		c-2.124,2.983-1.783,7.064,0.806,9.654l13.241,13.24c3.314,3.314,3.314,8.708,0,12.021l-22.628,22.628
		c-1.605,1.605-3.74,2.489-6.01,2.489c-2.27,0-4.404-0.884-6.01-2.49l-13.241-13.241c-2.589-2.588-6.67-2.931-9.653-0.806
		c-22.885,16.296-48.489,26.908-76.101,31.543c-3.612,0.606-6.258,3.733-6.258,7.396V439.5c0,4.687-3.813,8.5-8.5,8.5h-32
		c-4.687,0-8.5-3.813-8.5-8.5v-18.706c0-3.663-2.646-6.79-6.258-7.396c-27.612-4.635-53.216-15.247-76.101-31.543
		c-1.311-0.934-2.833-1.391-4.348-1.391c-1.933,0-3.854,0.745-5.306,2.196l-13.242,13.242c-1.605,1.605-3.74,2.489-6.01,2.489
		c-2.271,0-4.405-0.884-6.011-2.49l-22.627-22.626c-3.314-3.314-3.314-8.708,0-12.021l13.241-13.241
		c2.589-2.59,2.93-6.671,0.806-9.654c-16.295-22.884-26.908-48.488-31.543-76.1c-0.606-3.613-3.733-6.259-7.396-6.259H23.5
		c-4.687,0-8.5-3.813-8.5-8.5v-32c0-4.687,3.813-8.5,8.5-8.5h18.706c3.663,0,6.79-2.646,7.396-6.259
		c4.635-27.611,15.248-53.215,31.543-76.101c2.124-2.983,1.783-7.064-0.806-9.654l-13.241-13.241c-1.605-1.605-2.49-3.739-2.49-6.01
		s0.884-4.404,2.49-6.01l22.627-22.628c3.314-3.313,8.707-3.315,12.021,0l13.241,13.241c2.588,2.589,6.67,2.932,9.653,0.806
		c22.885-16.296,48.489-26.908,76.101-31.543c3.612-0.606,6.258-3.733,6.258-7.396V23.5c0-4.687,3.813-8.5,8.5-8.5h32
		c4.687,0,8.5,3.813,8.5,8.5v18.705c0,3.663,2.646,6.79,6.258,7.396c27.612,4.635,53.216,15.247,76.101,31.543
		c2.983,2.125,7.063,1.783,9.653-0.806l13.241-13.241c3.314-3.313,8.707-3.314,12.021-0.001l22.627,22.629
		c1.605,1.605,2.49,3.739,2.49,6.01s-0.884,4.404-2.49,6.01l-13.241,13.241c-2.589,2.59-2.93,6.671-0.806,9.654
		c16.295,22.886,26.908,48.489,31.543,76.101c0.606,3.612,3.733,6.259,7.396,6.259H439.5c4.687,0,8.5,3.813,8.5,8.5V247.5z"/>
</g>
<g>
</g>
<g>
</g>
<g>
</g>
<g>
</g>
<g>
</g>
<g>
</g>
<g>
</g>
<g>
</g>
<g>
</g>
<g>
</g>
<g>
</g>
<g>
</g>
<g>
</g>
<g>
</g>
<g>
</g>
</svg>
