<?xml version="1.0" encoding="iso-8859-1"?>
<!-- Generator: Adobe Illustrator 19.0.0, SVG Export Plug-In . SVG Version: 6.00 Build 0)  -->
<svg version="1.1" id="Layer_1" xmlns="http://www.w3.org/2000/svg" xmlns:xlink="http://www.w3.org/1999/xlink" x="0px" y="0px"
	 viewBox="0 0 512 512" style="enable-background:new 0 0 512 512;" xml:space="preserve">
<g>
	<g>
		<path d="M401.097,19.532v-9.333C401.097,4.567,396.53,0,390.898,0s-10.199,4.567-10.199,10.199v9.327h-24.811v-9.327
			C355.888,4.567,351.321,0,345.689,0S335.49,4.567,335.49,10.199v9.327h-24.081v-9.327C311.409,4.567,306.842,0,301.21,0
			S291.01,4.567,291.01,10.199v9.327H266.2v-9.327C266.2,4.567,261.633,0,256,0s-10.199,4.567-10.199,10.199v9.327h-24.811v-9.327
			C220.991,4.567,216.424,0,210.792,0s-10.199,4.567-10.199,10.199v9.327h-24.811v-9.327C175.782,4.567,171.215,0,165.583,0
			s-10.199,4.567-10.199,10.199v9.327h-24.081v-9.327C131.302,4.567,126.735,0,121.103,0s-10.199,4.567-10.199,10.199v9.333
			C88.364,19.668,70.069,38.04,70.069,60.61v410.306h-0.001c0,22.654,18.43,41.084,41.084,41.084h289.695
			c22.654,0,41.084-18.43,41.084-41.084V60.61C441.932,38.04,423.637,19.668,401.097,19.532z M90.466,60.61
			c0-11.322,9.146-20.537,20.436-20.673v3.481c0,5.632,4.567,10.199,10.199,10.199s10.199-4.567,10.199-10.199v-3.493h24.081v3.493
			c0,5.632,4.567,10.199,10.199,10.199s10.199-4.567,10.199-10.199v-3.493h24.811v3.493c0,5.632,4.567,10.199,10.199,10.199
			s10.199-4.567,10.199-10.199v-3.493h24.812v3.493c0,5.632,4.567,10.199,10.199,10.199S266.2,49.05,266.2,43.418v-3.493h24.811
			v3.493c0,5.632,4.567,10.199,10.199,10.199s10.199-4.567,10.199-10.199v-3.493h24.081v3.493c0,5.632,4.567,10.199,10.199,10.199
			s10.199-4.567,10.199-10.199v-3.493h24.811v3.493c0,5.632,4.567,10.199,10.199,10.199s10.199-4.567,10.199-10.199v-3.481
			c11.291,0.136,20.436,9.351,20.436,20.673v1.209H90.466V60.61z M421.535,470.916c0,11.407-9.28,20.686-20.686,20.686H111.152
			c-11.407,0-20.686-9.28-20.686-20.686v-388.7h331.068V470.916z"/>
	</g>
</g>
<g>
	<g>
		<path d="M388.347,126.287h-208.91c-5.632,0-10.199,4.567-10.199,10.199c0,5.632,4.566,10.199,10.199,10.199h208.91
			c5.632,0,10.199-4.567,10.199-10.199C398.547,130.854,393.979,126.287,388.347,126.287z"/>
	</g>
</g>
<g>
	<g>
		<path d="M137.872,126.287h-14.219c-5.632,0-10.199,4.567-10.199,10.199c0,5.632,4.567,10.199,10.199,10.199h14.219
			c5.632,0,10.199-4.567,10.199-10.199C148.072,130.854,143.504,126.287,137.872,126.287z"/>
	</g>
</g>
<g>
	<g>
		<path d="M388.347,175.872h-208.91c-5.632,0-10.199,4.567-10.199,10.199c0,5.632,4.566,10.199,10.199,10.199h208.91
			c5.632,0,10.199-4.567,10.199-10.199C398.547,180.439,393.979,175.872,388.347,175.872z"/>
	</g>
</g>
<g>
	<g>
		<path d="M137.872,175.872h-14.219c-5.632,0-10.199,4.567-10.199,10.199c0,5.632,4.567,10.199,10.199,10.199h14.219
			c5.632,0,10.199-4.567,10.199-10.199C148.072,180.439,143.504,175.872,137.872,175.872z"/>
	</g>
</g>
<g>
	<g>
		<path d="M388.347,226.186h-208.91c-5.632,0-10.199,4.567-10.199,10.199c0,5.632,4.566,10.199,10.199,10.199h208.91
			c5.632,0,10.199-4.567,10.199-10.199C398.547,230.753,393.979,226.186,388.347,226.186z"/>
	</g>
</g>
<g>
	<g>
		<path d="M137.872,226.186h-14.219c-5.632,0-10.199,4.567-10.199,10.199c0,5.632,4.567,10.199,10.199,10.199h14.219
			c5.632,0,10.199-4.567,10.199-10.199C148.072,230.753,143.504,226.186,137.872,226.186z"/>
	</g>
</g>
<g>
	<g>
		<path d="M388.347,275.04h-208.91c-5.632,0-10.199,4.567-10.199,10.199s4.566,10.199,10.199,10.199h208.91
			c5.632,0,10.199-4.567,10.199-10.199S393.979,275.04,388.347,275.04z"/>
	</g>
</g>
<g>
	<g>
		<path d="M137.872,275.04h-14.219c-5.632,0-10.199,4.567-10.199,10.199s4.567,10.199,10.199,10.199h14.219
			c5.632,0,10.199-4.567,10.199-10.199S143.504,275.04,137.872,275.04z"/>
	</g>
</g>
<g>
	<g>
		<path d="M388.347,325.354h-208.91c-5.632,0-10.199,4.567-10.199,10.199c0,5.632,4.566,10.199,10.199,10.199h208.91
			c5.632,0,10.199-4.567,10.199-10.199C398.547,329.921,393.979,325.354,388.347,325.354z"/>
	</g>
</g>
<g>
	<g>
		<path d="M137.872,325.354h-14.219c-5.632,0-10.199,4.567-10.199,10.199c0,5.632,4.567,10.199,10.199,10.199h14.219
			c5.632,0,10.199-4.567,10.199-10.199C148.072,329.921,143.504,325.354,137.872,325.354z"/>
	</g>
</g>
<g>
	<g>
		<path d="M388.347,374.208h-208.91c-5.632,0-10.199,4.567-10.199,10.199c0,5.632,4.566,10.199,10.199,10.199h208.91
			c5.632,0,10.199-4.567,10.199-10.199C398.547,378.775,393.979,374.208,388.347,374.208z"/>
	</g>
</g>
<g>
	<g>
		<path d="M137.872,374.208h-14.219c-5.632,0-10.199,4.567-10.199,10.199c0,5.632,4.567,10.199,10.199,10.199h14.219
			c5.632,0,10.199-4.567,10.199-10.199C148.072,378.775,143.504,374.208,137.872,374.208z"/>
	</g>
</g>
<g>
	<g>
		<path d="M388.347,424.521h-208.91c-5.632,0-10.199,4.567-10.199,10.199c0,5.632,4.566,10.199,10.199,10.199h208.91
			c5.632,0,10.199-4.567,10.199-10.199C398.547,429.089,393.979,424.521,388.347,424.521z"/>
	</g>
</g>
<g>
	<g>
		<path d="M137.872,424.521h-14.219c-5.632,0-10.199,4.567-10.199,10.199c0,5.632,4.567,10.199,10.199,10.199h14.219
			c5.632,0,10.199-4.567,10.199-10.199C148.072,429.089,143.504,424.521,137.872,424.521z"/>
	</g>
</g>
<g>
</g>
<g>
</g>
<g>
</g>
<g>
</g>
<g>
</g>
<g>
</g>
<g>
</g>
<g>
</g>
<g>
</g>
<g>
</g>
<g>
</g>
<g>
</g>
<g>
</g>
<g>
</g>
<g>
</g>
</svg>
