<?xml version="1.0" encoding="iso-8859-1"?>
<!-- Generator: Adobe Illustrator 19.0.0, SVG Export Plug-In . SVG Version: 6.00 Build 0)  -->
<svg version="1.1" id="Layer_1" xmlns="http://www.w3.org/2000/svg" xmlns:xlink="http://www.w3.org/1999/xlink" x="0px" y="0px"
	 viewBox="0 0 512 512" style="enable-background:new 0 0 512 512;" xml:space="preserve">
<g>
	<g>
		<path d="M435.2,51.2h-25.6V12.8c0-7.074-5.726-12.8-12.8-12.8C389.726,0,384,5.726,384,12.8v38.4H128V12.8
			C128,5.726,122.274,0,115.2,0s-12.8,5.726-12.8,12.8v38.4H76.8C34.449,51.2,0,85.649,0,128v307.2C0,477.551,34.449,512,76.8,512
			h358.4c42.351,0,76.8-34.449,76.8-76.8V128C512,85.649,477.551,51.2,435.2,51.2z M486.4,435.2c0,28.279-22.921,51.2-51.2,51.2
			H76.8c-28.279,0-51.2-22.921-51.2-51.2V204.8h460.8V435.2z M486.4,179.2H25.6V128c0-28.279,22.921-51.2,51.2-51.2h25.6v38.4
			c0,7.074,5.726,12.8,12.8,12.8s12.8-5.726,12.8-12.8V76.8h256v38.4c0,7.074,5.726,12.8,12.8,12.8c7.074,0,12.8-5.726,12.8-12.8
			V76.8h25.6c28.279,0,51.2,22.921,51.2,51.2V179.2z"/>
	</g>
</g>
<g>
	<g>
		<path d="M115.2,243.2c-21.205,0-38.4,17.195-38.4,38.4c0,21.205,17.195,38.4,38.4,38.4s38.4-17.195,38.4-38.4
			C153.6,260.395,136.405,243.2,115.2,243.2z M115.2,294.4c-7.057,0-12.8-5.743-12.8-12.8s5.743-12.8,12.8-12.8
			s12.8,5.743,12.8,12.8S122.257,294.4,115.2,294.4z"/>
	</g>
</g>
<g>
	<g>
		<path d="M256,243.2c-21.205,0-38.4,17.195-38.4,38.4c0,21.205,17.195,38.4,38.4,38.4c21.205,0,38.4-17.195,38.4-38.4
			C294.4,260.395,277.205,243.2,256,243.2z M256,294.4c-7.057,0-12.8-5.743-12.8-12.8s5.743-12.8,12.8-12.8s12.8,5.743,12.8,12.8
			S263.057,294.4,256,294.4z"/>
	</g>
</g>
<g>
	<g>
		<path d="M396.8,243.2c-21.205,0-38.4,17.195-38.4,38.4c0,21.205,17.195,38.4,38.4,38.4c21.205,0,38.4-17.195,38.4-38.4
			C435.2,260.395,418.005,243.2,396.8,243.2z M396.8,294.4c-7.057,0-12.8-5.743-12.8-12.8s5.743-12.8,12.8-12.8
			c7.057,0,12.8,5.743,12.8,12.8S403.857,294.4,396.8,294.4z"/>
	</g>
</g>
<g>
	<g>
		<path d="M115.2,371.2c-21.205,0-38.4,17.195-38.4,38.4c0,21.205,17.195,38.4,38.4,38.4s38.4-17.195,38.4-38.4
			C153.6,388.395,136.405,371.2,115.2,371.2z M115.2,422.4c-7.057,0-12.8-5.743-12.8-12.8s5.743-12.8,12.8-12.8
			s12.8,5.743,12.8,12.8S122.257,422.4,115.2,422.4z"/>
	</g>
</g>
<g>
	<g>
		<path d="M256,371.2c-21.205,0-38.4,17.195-38.4,38.4c0,21.205,17.195,38.4,38.4,38.4c21.205,0,38.4-17.195,38.4-38.4
			C294.4,388.395,277.205,371.2,256,371.2z M256,422.4c-7.057,0-12.8-5.743-12.8-12.8s5.743-12.8,12.8-12.8s12.8,5.743,12.8,12.8
			S263.057,422.4,256,422.4z"/>
	</g>
</g>
<g>
	<g>
		<path d="M396.8,371.2c-21.205,0-38.4,17.195-38.4,38.4c0,21.205,17.195,38.4,38.4,38.4c21.205,0,38.4-17.195,38.4-38.4
			C435.2,388.395,418.005,371.2,396.8,371.2z M396.8,422.4c-7.057,0-12.8-5.743-12.8-12.8s5.743-12.8,12.8-12.8
			c7.057,0,12.8,5.743,12.8,12.8S403.857,422.4,396.8,422.4z"/>
	</g>
</g>
<g>
</g>
<g>
</g>
<g>
</g>
<g>
</g>
<g>
</g>
<g>
</g>
<g>
</g>
<g>
</g>
<g>
</g>
<g>
</g>
<g>
</g>
<g>
</g>
<g>
</g>
<g>
</g>
<g>
</g>
</svg>
