<?xml version="1.0" encoding="iso-8859-1"?>
<!-- Generator: Adobe Illustrator 19.1.0, SVG Export Plug-In . SVG Version: 6.00 Build 0)  -->
<svg version="1.1" id="Capa_1" xmlns="http://www.w3.org/2000/svg" xmlns:xlink="http://www.w3.org/1999/xlink" x="0px" y="0px"
	 viewBox="0 0 82.003 82.003" style="enable-background:new 0 0 82.003 82.003;" xml:space="preserve">
<g>
	<g>
		<path d="M4.266,70.501h73.469c2.352,0,4.265-2.033,4.265-4.386V15.666c0-0.009,0.003,0.043,0.003,0.034
			c0-2.348-1.914-4.199-4.267-4.199h-0.002H4.612H4.265C1.913,11.501,0,13.296,0,15.648v50.467C0,68.468,1.913,70.501,4.266,70.501z
			 M29.525,38.624L4,63.944V19.391L29.525,38.624z M78,19.688v42.289L53.914,38.083L78,19.688z M50.723,40.521
			c0.044,0.053,0.082,0.169,0.132,0.22l25.909,25.76H7.221l25.533-25.387l7.481,5.607c0.356,0.268,0.779,0.388,1.203,0.388
			c0.428,0,0.855-0.144,1.214-0.418L50.723,40.521z M77.047,15.501L41.431,42.703L5.326,15.501H77.047z"/>
	</g>
</g>
<g>
</g>
<g>
</g>
<g>
</g>
<g>
</g>
<g>
</g>
<g>
</g>
<g>
</g>
<g>
</g>
<g>
</g>
<g>
</g>
<g>
</g>
<g>
</g>
<g>
</g>
<g>
</g>
<g>
</g>
</svg>
