<?xml version="1.0" encoding="iso-8859-1"?>
<!-- Generator: Adobe Illustrator 16.0.0, SVG Export Plug-In . SVG Version: 6.00 Build 0)  -->
<!DOCTYPE svg PUBLIC "-//W3C//DTD SVG 1.1//EN" "http://www.w3.org/Graphics/SVG/1.1/DTD/svg11.dtd">
<svg version="1.1" id="Capa_1" xmlns="http://www.w3.org/2000/svg" xmlns:xlink="http://www.w3.org/1999/xlink" x="0px" y="0px"
	 width="23.515px" height="23.515px" viewBox="0 0 23.515 23.515" style="enable-background:new 0 0 23.515 23.515;"
	 xml:space="preserve">
<g>
	<path d="M23.515,0.333v11.81c0,7.361-2.69,11.041-8.071,11.041c-0.595,0-1.504-0.041-2.729-0.118v-4.57
		c3.722,0,5.578-1.721,5.578-5.162l-0.06-2.078h-3.856V0.335L23.515,0.333L23.515,0.333z M1.188,11.253h3.856l0.06,2.077
		c0,3.243-1.701,4.965-5.104,5.163v4.57c1.067,0.078,1.819,0.117,2.254,0.117c5.381,0,8.071-3.68,8.071-11.04V0.331H1.186v10.921
		L1.188,11.253L1.188,11.253z"/>
</g>
<g>
</g>
<g>
</g>
<g>
</g>
<g>
</g>
<g>
</g>
<g>
</g>
<g>
</g>
<g>
</g>
<g>
</g>
<g>
</g>
<g>
</g>
<g>
</g>
<g>
</g>
<g>
</g>
<g>
</g>
</svg>
